<!DOCTYPE svg PUBLIC "-//W3C//DTD SVG 1.1//EN" "http://www.w3.org/Graphics/SVG/1.1/DTD/svg11.dtd">
<!-- Uploaded to: SVG Repo, www.svgrepo.com, Transformed by: SVG Repo Mixer Tools -->
<svg version="1.1" id="Layer_1" xmlns="http://www.w3.org/2000/svg" xmlns:xlink="http://www.w3.org/1999/xlink" viewBox="0 0 512 512" xml:space="preserve" width="800px" height="800px" fill="#000000" transform="matrix(-1, 0, 0, 1, 0, 0)">
<g id="SVGRepo_bgCarrier" stroke-width="0"/>
<g id="SVGRepo_tracerCarrier" stroke-linecap="round" stroke-linejoin="round"/>
<g id="SVGRepo_iconCarrier"> <polygon style="fill:#4D4D4D;" points="512,205.363 512,486.681 478.242,460.958 433.231,346.022 478.242,231.086 "/> <polygon style="fill:#737373;" points="478.242,231.086 478.242,460.958 393.846,396.659 371.341,346.022 393.846,295.385 "/> <rect x="326.33" y="284.132" style="fill:#B9B9B9;" width="67.516" height="123.78"/> <path style="fill:#737373;" d="M326.33,205.363h-33.758v281.319h33.758c18.567,0,33.758-15.191,33.758-33.758V239.121 C360.088,220.554,344.897,205.363,326.33,205.363z"/> <path style="fill:#3ea4b1;" d="M326.33,239.121v213.802c0,18.567-15.191,33.758-33.758,33.758H33.758 C15.191,486.681,0,471.49,0,452.923V239.121c0-18.567,15.191-33.758,33.758-33.758h258.813 C311.138,205.363,326.33,220.554,326.33,239.121z"/> <path style="fill:#737373;" d="M180.046,258.811H45.013c-4.661,0-8.44-3.778-8.44-8.44s3.779-8.44,8.44-8.44h135.033 c4.661,0,8.44,3.778,8.44,8.44S184.707,258.811,180.046,258.811z"/> <polygon style="fill:#B9B9B9;" points="292.571,284.132 292.571,407.912 258.813,407.912 225.055,346.022 258.813,284.132 "/> <rect x="45.011" y="284.132" style="fill:#DCDCDC;" width="213.802" height="123.78"/> <path style="fill:#3ea4b1;" d="M90.024,25.319v180.044c49.715,0,90.022-40.307,90.022-90.022S139.739,25.319,90.024,25.319z"/> <path style="fill:#B9B9B9;" d="M90.024,25.319c31.08,0,56.264,40.307,56.264,90.022s-25.184,90.022-56.264,90.022 c-49.715,0-90.022-40.307-90.022-90.022S40.31,25.319,90.024,25.319z"/> <path style="fill:#3ea4b1;" d="M270.066,25.319v180.044c49.715,0,90.022-40.307,90.022-90.022S319.781,25.319,270.066,25.319z"/> <path style="fill:#B9B9B9;" d="M270.066,25.319c31.08,0,56.264,40.307,56.264,90.022s-25.184,90.022-56.264,90.022 c-49.715,0-90.022-40.307-90.022-90.022S220.351,25.319,270.066,25.319z"/> <g> <path style="fill:#EEEEEE;" d="M270.068,149.097c-18.614,0-33.758-15.144-33.758-33.758s15.144-33.758,33.758-33.758 c18.614,0,33.758,15.144,33.758,33.758S288.682,149.097,270.068,149.097z"/> <path style="fill:#EEEEEE;" d="M90.024,149.097c-18.614,0-33.758-15.144-33.758-33.758S71.41,81.58,90.024,81.58 s33.758,15.144,33.758,33.758S108.639,149.097,90.024,149.097z"/> </g> </g>
</svg>